<svg xmlns="http://www.w3.org/2000/svg" version="1.1" xmlns:xlink="http://www.w3.org/1999/xlink" xmlns:svgjs="http://svgjs.com/svgjs" width="1440" height="560" preserveAspectRatio="none" viewBox="0 0 1440 560">
    <g mask="url(&quot;#SvgjsMask1005&quot;)" fill="none">
        <rect width="1440" height="560" x="0" y="0" fill="url(#SvgjsLinearGradient1006)"></rect>
        <path d="M560.95 619.73C697.64 569.36 643.74 160.58 917.91 159.18 1192.09 157.78 1444.8 380.57 1631.84 383.18" stroke="rgba(51,121,194,0.58)" stroke-width="2"></path>
        <path d="M249.17 662.69C387.04 647.32 467.92 346.17 703.36 343.94 938.81 341.71 930.46 413.94 1157.56 413.94 1384.65 413.94 1496.86 344.15 1611.75 343.94" stroke="rgba(51,121,194,0.58)" stroke-width="2"></path>
        <path d="M586.58 561.09C721.47 554.47 796.29 335.2 1069.68 319.36 1343.08 303.52 1414.21 54.31 1552.79 44.96" stroke="rgba(51,121,194,0.58)" stroke-width="2"></path>
        <path d="M697.39 583.33C830.88 570.02 890.32 300.29 1143.53 285.12 1396.73 269.95 1468.99 103.93 1589.66 100.32" stroke="rgba(51,121,194,0.58)" stroke-width="2"></path>
        <path d="M858.95 636.26C947.92 624.49 907.79 429.66 1145.09 419.51 1382.39 409.36 1566.6 231.59 1717.36 229.11" stroke="rgba(51,121,194,0.58)" stroke-width="2"></path>
    </g>
    <defs>
        <mask id="SvgjsMask1005">
            <rect width="1440" height="560" fill="#ffffff"></rect>
        </mask>
        <linearGradient x1="15.28%" y1="-39.29%" x2="84.72%" y2="139.29%" gradientUnits="userSpaceOnUse" id="SvgjsLinearGradient1006">
            <stop stop-color="#0e2a47" offset="0"></stop>
            <stop stop-color="rgba(158, 69, 0, 1)" offset="1"></stop>
        </linearGradient>
    </defs>
</svg>